<?xml version="1.0" standalone="no"?><!DOCTYPE svg PUBLIC "-//W3C//DTD SVG 1.1//EN" "http://www.w3.org/Graphics/SVG/1.1/DTD/svg11.dtd"><svg t="1662721762557" class="icon" viewBox="0 0 1152 1024" version="1.1" xmlns="http://www.w3.org/2000/svg" p-id="4887" xmlns:xlink="http://www.w3.org/1999/xlink" width="225" height="200"><path d="M1152 608v192c0 53.02-42.98 96-96 96H96c-53.02 0-96-42.98-96-96v-192c0-53.02 42.98-96 96-96h960c53.02 0 96 42.98 96 96z m-96-160a159.114 159.114 0 0 1 61.554 12.33L924.5 170.748A96.006 96.006 0 0 0 844.622 128H307.378a96 96 0 0 0-79.876 42.748L34.446 460.33A159.114 159.114 0 0 1 96 448h960z m-96 192c-35.346 0-64 28.654-64 64s28.654 64 64 64 64-28.654 64-64-28.654-64-64-64z m-192 0c-35.346 0-64 28.654-64 64s28.654 64 64 64 64-28.654 64-64-28.654-64-64-64z" fill="#5cc50c" p-id="4888"></path></svg>